<?xml version="1.0" encoding="UTF-8"?>
<svg width="410" height="410" version="1.1" viewBox="0 0 410 410" xmlns="http://www.w3.org/2000/svg" xmlns:cc="http://creativecommons.org/ns#" xmlns:dc="http://purl.org/dc/elements/1.1/" xmlns:rdf="http://www.w3.org/1999/02/22-rdf-syntax-ns#">
 <metadata>
  <rdf:RDF>
   <cc:Work rdf:about="">
    <dc:format>image/svg+xml</dc:format>
    <dc:type rdf:resource="http://purl.org/dc/dcmitype/StillImage"/>
    <dc:title/>
   </cc:Work>
  </rdf:RDF>
 </metadata>
 <rect width="410" height="410" fill="#2b1100" stroke-width="129.98"/>
 <g transform="translate(-99.029 -98.273)" fill-rule="evenodd" stroke-width=".11112">
  <rect x="104.03" y="103.27" width="50" height="50" fill="#a05a2c"/>
  <rect x="154.03" y="103.27" width="50" height="50" fill="#fca"/>
  <rect x="204.03" y="103.27" width="50" height="50" fill="#a05a2c"/>
  <rect x="254.03" y="103.27" width="50" height="50" fill="#fca"/>
  <rect x="304.03" y="103.27" width="50" height="50" fill="#a05a2c"/>
  <rect x="354.03" y="103.27" width="50" height="50" fill="#fca"/>
  <rect x="404.03" y="103.27" width="50" height="50" fill="#a05a2c"/>
  <rect x="454.03" y="103.27" width="50" height="50" fill="#fca"/>
  <rect x="104.03" y="153.27" width="50" height="50" fill="#fca"/>
  <rect x="154.03" y="153.27" width="50" height="50" fill="#a05a2c"/>
  <rect x="204.03" y="153.27" width="50" height="50" fill="#fca"/>
  <rect x="254.03" y="153.27" width="50" height="50" fill="#a05a2c"/>
  <rect x="304.03" y="153.27" width="50" height="50" fill="#fca"/>
  <rect x="354.03" y="153.27" width="50" height="50" fill="#a05a2c"/>
  <rect x="404.03" y="153.27" width="50" height="50" fill="#fca"/>
  <rect x="454.03" y="153.27" width="50" height="50" fill="#a05a2c"/>
  <rect x="104.03" y="203.27" width="50" height="50" fill="#a05a2c"/>
  <rect x="154.03" y="203.27" width="50" height="50" fill="#fca"/>
  <rect x="204.03" y="203.27" width="50" height="50" fill="#a05a2c"/>
  <rect x="254.03" y="203.27" width="50" height="50" fill="#fca"/>
  <rect x="304.03" y="203.27" width="50" height="50" fill="#a05a2c"/>
  <rect x="354.03" y="203.27" width="50" height="50" fill="#fca"/>
  <rect x="404.03" y="203.27" width="50" height="50" fill="#a05a2c"/>
  <rect x="454.03" y="203.27" width="50" height="50" fill="#fca"/>
  <rect x="104.03" y="253.27" width="50" height="50" fill="#fca"/>
  <rect x="154.03" y="253.27" width="50" height="50" fill="#a05a2c"/>
  <rect x="204.03" y="253.27" width="50" height="50" fill="#fca"/>
  <rect x="254.03" y="253.27" width="50" height="50" fill="#a05a2c"/>
  <rect x="304.03" y="253.27" width="50" height="50" fill="#fca"/>
  <rect x="354.03" y="253.27" width="50" height="50" fill="#a05a2c"/>
  <rect x="404.03" y="253.27" width="50" height="50" fill="#fca"/>
  <rect x="454.03" y="253.27" width="50" height="50" fill="#a05a2c"/>
  <rect x="104.03" y="303.27" width="50" height="50" fill="#a05a2c"/>
  <rect x="154.03" y="303.27" width="50" height="50" fill="#fca"/>
  <rect x="204.03" y="303.27" width="50" height="50" fill="#a05a2c"/>
  <rect x="254.03" y="303.27" width="50" height="50" fill="#fca"/>
  <rect x="304.03" y="303.27" width="50" height="50" fill="#a05a2c"/>
  <rect x="354.03" y="303.27" width="50" height="50" fill="#fca"/>
  <rect x="404.03" y="303.27" width="50" height="50" fill="#a05a2c"/>
  <rect x="454.03" y="303.27" width="50" height="50" fill="#fca"/>
  <rect x="104.03" y="353.27" width="50" height="50" fill="#fca"/>
  <rect x="154.03" y="353.27" width="50" height="50" fill="#a05a2c"/>
  <rect x="204.03" y="353.27" width="50" height="50" fill="#fca"/>
  <rect x="254.03" y="353.27" width="50" height="50" fill="#a05a2c"/>
  <rect x="304.03" y="353.27" width="50" height="50" fill="#fca"/>
  <rect x="354.03" y="353.27" width="50" height="50" fill="#a05a2c"/>
  <rect x="404.03" y="353.27" width="50" height="50" fill="#fca"/>
  <rect x="454.03" y="353.27" width="50" height="50" fill="#a05a2c"/>
  <rect x="104.03" y="403.27" width="50" height="50" fill="#a05a2c"/>
  <rect x="154.03" y="403.27" width="50" height="50" fill="#fca"/>
  <rect x="204.03" y="403.27" width="50" height="50" fill="#a05a2c"/>
  <rect x="254.03" y="403.27" width="50" height="50" fill="#fca"/>
  <rect x="304.03" y="403.27" width="50" height="50" fill="#a05a2c"/>
  <rect x="354.03" y="403.27" width="50" height="50" fill="#fca"/>
  <rect x="404.03" y="403.27" width="50" height="50" fill="#a05a2c"/>
  <rect x="454.03" y="403.27" width="50" height="50" fill="#fca"/>
  <rect x="104.03" y="453.27" width="50" height="50" fill="#fca"/>
  <rect x="154.03" y="453.27" width="50" height="50" fill="#a05a2c"/>
  <rect x="204.03" y="453.27" width="50" height="50" fill="#fca"/>
  <rect x="254.03" y="453.27" width="50" height="50" fill="#a05a2c"/>
  <rect x="304.03" y="453.27" width="50" height="50" fill="#fca"/>
  <rect x="354.03" y="453.27" width="50" height="50" fill="#a05a2c"/>
  <rect x="404.03" y="453.27" width="50" height="50" fill="#fca"/>
  <rect x="454.03" y="453.27" width="50" height="50" fill="#a05a2c"/>
 </g>
</svg>
